<?xml version="1.0" encoding="UTF-8"?>
<svg version="1.1" viewBox="0 0 2048 532" width="954" height="248" xmlns="http://www.w3.org/2000/svg">
<path transform="translate(726,51)" d="m0 0h20l6 8 15 29 18 35 23 46 10 19 28 54 8 15 1 3 2 1 2-6 23-45 12-23 10-20 10-19 10-20 10-19 11-22 12-22 6-12 5-2h18l1 1v232h-21l-1-184-1-16-1-1-17 35-15 30-10 19-23 45-18 35-15 29-10 19h-2l-14-30-24-48-10-19-17-34-10-19-21-41-12-22-2-5 1 14v193l-4 1-15-1v-232zm15 14v5h1v-5z" fill="#0C0C0C"/>
<path transform="translate(1823,51)" d="m0 0h15l5 1v129l161 1 1-131h19l1 233-2 1-18-1-1-1v-83l-160 1-1 83-3 1-18-1v-232z" fill="#0C0C0C"/>
<path transform="translate(1221,50)" d="m0 0 28 2 20 4 16 6 16 9 12 11 7 9 7 15 2 8 1 9v10l-3 16-8 16-7 9-8 8-15 9-14 6-25 5 5 5v2l4 2 11 10 11 9 12 11 11 9 20 18 13 11 5 5-4 1h-16l-11-4-10-8-13-11-13-12-28-24-6-5-1 27v35l-2 2-19-1v-53l1-180zm19 14-1 3v86l1 33 3 1 18-4 16-7 12-8 6-5 7-9 5-10 3-14v-9l-3-16-6-10-11-11-10-7-16-8-22-5z" fill="#0C0C0C"/>
<path transform="translate(1485,41)" d="m0 0 3 1 4 11 13 23 15 29 12 22 13 25 12 22 13 24 13 25 12 22 15 28 5 9v2l-2 1h-11l-9-2-8-14-12-24-10-19-13-24-4-6h-119l-6 1-10 18-10 20-10 19-11 22-4 7-9 2h-13l2-5 10-18 12-22 18-34 14-26 13-25 12-22 17-32 12-23 12-22 8-14zm-2 40-12 21-15 29-14 27-10 19-1 5h107l-2-6-14-26-13-25-12-22-11-21z" fill="#0C0C0C"/>
<path transform="translate(540,17)" d="m0 0h15l6 1 1 5-2 241-2 195-1 39-1 1h-14l-7-1v-65l3-313z" fill="#0C0C0C"/>
<path transform="translate(1686,48)" d="m0 0h31l16 4 15 8 8 7 3 6 1 5 1 27-2 2-6-9-6-11-7-7-11-7-14-5-6-1h-16l-9 2-10 6-5 6-3 9v14l4 8 7 8 15 10 16 8 29 15 16 10 10 8 9 9 9 16 3 10 1 8v16l-3 15-8 15-9 10-10 7-12 6-19 5-9 1h-20l-16-3-15-5-11-7-10-9-6-7-3-5-1-12-1-26 4 1 7 16 6 11 9 10 8 6 12 6 15 4h26l14-4 14-7 10-9 5-10 2-8v-19l-3-10-6-10-6-7-10-7-15-9-36-18-18-11-10-9-8-9-5-10-2-8v-18l4-12 5-8 8-8 10-6 9-3z" fill="#0C0C0C"/>
<path transform="translate(1018,50)" d="m0 0 16 1 6 1 12 22 13 23 12 22 26 46 5 7h2l8-16 10-18 12-22 14-26 13-24 8-13 3-2 17-1-2 6-10 19-10 18-13 24-25 45-14 27-1 4-1 91h-23l-1-92-8-16-14-24-12-22-12-21-11-20-13-23-6-10z" fill="#0C0C0C"/>
<path transform="translate(99,262)" d="m0 0h306l2 2 1 12v36l-1 27-2 18-7 33-8 23-8 17-12 19-11 13-10 10-8 7-11 9-10 4-21 5-15 2h-47l-26-3-21-6-14-5-1 1v7l5 5 14 6 18 4 29 2h29l20-1 22-3 12-4 8-6 2-1-1 5-4 5-11 4-15 3-20 2h-57l-20-2-19-5-12-6-5-5v-6l2-5-1-5-11-9-8-8-7-8-7-7-2-1-20-3-21-7-20-9-16-9-11-8-10-9-10-14-7-15-3-13-1-17 3-12 6-9 8-7 11-4h8l14 3 19 14 11 11 4 2v-10l-1-9-9-3-9-4 3-1 15 6-2-22v-35zm4 6-2 7 1 30 3 29 2 21 8 34 7 20 7 17 14 20 8 10 19 19 14 8 13 5 20 5 17 2h55l17-3 15-5 10-6 13-11 10-9 9-10 9-13 9-16 7-15 8-26 6-30 2-22v-60l-6-1zm-59 49-12 6-6 8-3 6v20l4 16 7 13 11 14 11 10 13 10 19 10 25 9 12 3 8-1 1-2-6-9-1-1-15-2-18-6-21-10 23 10 15 5 9 2h6l-3-9-9-23-11-44-4-6-10-10-17-13-11-5-4-1z" fill="#0D0D0D"/>
<path transform="translate(834,379)" d="m0 0h12l5 5 4 8 20 59 4 8v3h-9l-9-2-2-5-2-13-33 2-4 10-3 7-1 1h-13l-1-5 9-24 10-29 7-19 3-5zm4 12-4 15-5 17-2 4v3h24l-1-10-8-26-2-3z" fill="#0C0C0C"/>
<path transform="translate(1020,380)" d="m0 0h54l-1 12h-38v22l17-1h16l2 1-1 10-35 1 1 24h37l2 1 1 3v7l-1 1h-55z" fill="#0C0C0C"/>
<path transform="translate(725,379)" d="m0 0h15l10 3 11 8 2 3v6l-5 4-5-2-10-7-5-2h-12l-7 4-6 8-2 6-1 7v8l2 10 4 8 9 6 10 1 9-3 7-6 5-6h5l2 3 1 7-4 6-8 7-6 3-5 1h-18l-9-4-8-6-7-10-3-9-1-7v-11l3-14 6-10 9-8 7-3z" fill="#0C0C0C"/>
<path transform="translate(131,50)" d="m0 0 7 1 8 7 6 8 1 5-5 6-5-2 1-8-4-8-4-3-5 1-2 12 2 7 5 4 5 2h11l10-5h5l1 3-6 7-8 6v38l5 5 10 8 9 3h10l6-4 7-8v-6l-5-5-5-2-15-1 2-2 5-2h11l10 5 3 5-1 7-3 6-5 5-7 5-7 2h-8l-9-2 6 10 8 11 4 10 1 6v15l-4 12-5 7-9 6-6 1-4-10-9-10-6-9-2-7v-15l3-6 7-1 12 5 8 6 6 8 4 2-3-14-5-10-8-10-3-8-6-5-5-8-2-6-1-36-2-3-10-3-7-6-4-8-1-9 2-8 4-6zm17 125-3 5v11l3 8 12 13 4 8 5-1 6-4 1-7-1-4 3-5v-6l-5-5-13-10-6-3z" fill="#0C0C0C"/>
<path transform="translate(923,380)" d="m0 0h52l-1 12h-21l-14-1v25h33v9l-1 4h-33l1 10v22h-17z" fill="#0C0C0C"/>
<path transform="translate(293,94)" d="m0 0h9l7 5 4 8 4 31 7 8 8 6 3-1 5-8 3-2 18-2 7 1 1 1v11l-4 8-6 5-4 1h-9l6 19v14l-4 11-7 10-10 9-11 7h-3l1-4 14-10 5-5-9-3-11-7-6-9-1-4v-11l3-8 4-4 7 1 6 4 4 4v10l-2 7-3 2-1-1v-19l-4-3h-6l-3 7v10l3 7 8 7 2 1h7l5-5 3-7 2-15-4-10-11-12-11-11-7-8-11-8-8-6-5-8v-15l3-7zm5 4-4 4-2 5v9l3 6 9 9h5l-1-8-2-7-1-15-4-3zm49 48-9 3-3 5 9 9 15-3 5-4 1-3-4-5-2-1zm-12 67-1 2h4v-2z" fill="#0C0C0C"/>
<path transform="translate(230,22)" d="m0 0 4 1 4 4 4 8 3 17 5-3 9-10 9-11 6-5h3l-1 5-13 13-7 8-11 12-8 10-6 12-1 4v14l2 9 4 4 7 5 7 9 7 10 12 17 6 12 1 3v17l-4 13-7 12-12 13-4 4h-3l2-4 4-4v-8l-3-3-8-5-6-10-2-5-1-13 3-9 3-3 4-1 10 4 7 8v9l-7 12h-2v-6l4-7-2-9-5-4-8-1-2 6v12l3 7 7 8 6 5 5-3 5-7 7-16 1-4v-7l-5-12-8-11-18-20-11-15-3-9-1-12 1-10 6-11 2-3 2-7 4-6v-5l-3-5-1-8-1-5z" fill="#0C0C0C"/>
<path transform="translate(268,93)" d="m0 0h6l2 1v19l-3 9-7 6h-6l-3-4-1-11 3-2 4 12 6-2 2-4-1-9-5-8h-6l-6 4-6 7-4 4 1-5 6-8 8-7z" fill="#0E0E0E"/>
<path transform="translate(223,21)" d="m0 0h5l-4 6v18l3 7 7 7v2l-5-1-6-5-4-10v-20z" fill="#0C0C0C"/>
<path transform="translate(170,123)" d="m0 0 2 1 1 4 4 2 12 3 3 2v2h-9l-17-4v3l-2-1-1-5 5-6z" fill="#0F0F0F"/>
<path transform="translate(155,188)" d="m0 0 5 1 6 8 2 4-5-2-8-8z" fill="#0C0C0C"/>
<path transform="translate(79,313)" d="m0 0 3 1z" fill="#5C5C5C"/>
<path transform="translate(69,409)" d="m0 0 2 1z" fill="#0C0C0C"/>
<path transform="translate(67,408)" d="m0 0 2 1z" fill="#848484"/>
<path transform="translate(174,121)" d="m0 0 2 1z" fill="#848484"/>
<path transform="translate(330,491)" d="m0 0" fill="#0C0C0C"/>
<path transform="translate(65,407)" d="m0 0" fill="#FDFDFD"/>
<path transform="translate(77,312)" d="m0 0" fill="#FDFDFD"/>
<path transform="translate(168,201)" d="m0 0" fill="#0C0C0C"/>
<path transform="translate(172,122)" d="m0 0" fill="#0C0C0C"/>
<path transform="translate(242,115)" d="m0 0" fill="#0C0C0C"/>
</svg>
